<?xml version="1.0" encoding="UTF-8" standalone="no"?>
<!-- Created with Inkscape (http://www.inkscape.org/) -->

<svg
   xmlns:dc="http://purl.org/dc/elements/1.1/"
   xmlns:cc="http://creativecommons.org/ns#"
   xmlns:rdf="http://www.w3.org/1999/02/22-rdf-syntax-ns#"
   xmlns:svg="http://www.w3.org/2000/svg"
   xmlns="http://www.w3.org/2000/svg"
   xmlns:sodipodi="http://sodipodi.sourceforge.net/DTD/sodipodi-0.dtd"
   xmlns:inkscape="http://www.inkscape.org/namespaces/inkscape"
   version="1.1"
   width="477.02866"
   height="131.67288"
   id="svg3004"
   xml:space="preserve"
   inkscape:version="0.48.2 r9819"
   sodipodi:docname="all.svg"><sodipodi:namedview
     pagecolor="#ffffff"
     bordercolor="#666666"
     borderopacity="1"
     objecttolerance="10"
     gridtolerance="10"
     guidetolerance="10"
     inkscape:pageopacity="0"
     inkscape:pageshadow="2"
     inkscape:window-width="1243"
     inkscape:window-height="619"
     id="namedview36"
     showgrid="false"
     fit-margin-top="1"
     fit-margin-left="3"
     fit-margin-right="3"
     fit-margin-bottom="1"
     inkscape:zoom="1.85"
     inkscape:cx="242.43115"
     inkscape:cy="65.056597"
     inkscape:window-x="0"
     inkscape:window-y="0"
     inkscape:window-maximized="0"
     inkscape:current-layer="svg3004" /><metadata
     id="metadata3010"><rdf:RDF><cc:Work
         rdf:about=""><dc:format>image/svg+xml</dc:format><dc:type
           rdf:resource="http://purl.org/dc/dcmitype/StillImage" /><dc:title></dc:title></cc:Work></rdf:RDF></metadata><defs
     id="defs3008"><clipPath
       id="clipPath3020"><path
         d="m 0,0 3989.5,0 0,1222.1 L 0,1222.1 0,0 z"
         id="path3022"
         inkscape:connector-curvature="0" /></clipPath></defs><g
     transform="matrix(1.25,0,0,-1.25,-6.94385,143.49125)"
     id="g3012"><path
       d="m 219.241,14.2793 1.026,0 c -0.089,-1.2594 -0.531,-2.2453 -1.331,-2.9574 -0.8,-0.7121 -1.867,-1.0664 -3.203,-1.0664 -1.526,0 -2.732,0.5351 -3.616,1.6058 -0.884,1.0727 -1.325,2.541 -1.325,4.4067 0,1.8504 0.445,3.3047 1.337,4.3632 0.892,1.0594 2.103,1.5887 3.634,1.5887 1.286,0 2.325,-0.3281 3.119,-0.9828 0.795,-0.6555 1.219,-1.5332 1.275,-2.6332 l -1.025,0 c -0.086,0.8324 -0.432,1.4899 -1.032,1.9695 -0.602,0.4809 -1.38,0.7211 -2.337,0.7211 -1.227,0 -2.184,-0.4383 -2.866,-1.3136 -0.685,-0.8778 -1.026,-2.109 -1.026,-3.6977 0,-1.5988 0.347,-2.8504 1.043,-3.7543 0.697,-0.9051 1.659,-1.3562 2.888,-1.3562 1.002,0 1.807,0.2734 2.416,0.8238 0.611,0.5508 0.95,1.3113 1.023,2.2828"
       id="path3024"
       style="fill:#fa3105;fill-opacity:1;fill-rule:nonzero;stroke:none"
       inkscape:connector-curvature="0" /><path
       d="m 231.54,16.2371 c 0,-1.5523 0.371,-2.7816 1.111,-3.6887 0.739,-0.9078 1.741,-1.3613 3.006,-1.3613 1.27,0 2.276,0.4524 3.022,1.3574 0.746,0.9039 1.119,2.1352 1.119,3.6926 0,1.5625 -0.373,2.7988 -1.119,3.7086 -0.746,0.909 -1.752,1.3637 -3.022,1.3637 -1.248,0 -2.246,-0.4586 -2.995,-1.3758 -0.747,-0.9172 -1.122,-2.1504 -1.122,-3.6965 m -1.079,0 c 0,1.8402 0.468,3.2977 1.402,4.3711 0.937,1.0746 2.2,1.6121 3.794,1.6121 1.598,0 2.866,-0.5375 3.805,-1.6121 0.937,-1.0734 1.406,-2.5309 1.406,-4.3711 0,-1.8391 -0.469,-3.2976 -1.406,-4.3715 -0.939,-1.0746 -2.207,-1.6109 -3.805,-1.6109 -1.594,0 -2.857,0.5363 -3.794,1.6109 -0.934,1.0739 -1.402,2.5324 -1.402,4.3715"
       id="path3026"
       style="fill:#fa3105;fill-opacity:1;fill-rule:nonzero;stroke:none"
       inkscape:connector-curvature="0" /><path
       d="m 251.588,10.5707 0,11.3563 1.151,0 6.412,-9.7446 0,9.7446 1.01,0 0,-11.3563 -1.156,0 -6.391,9.7445 0,-9.7445"
       id="path3028"
       style="fill:#fa3105;fill-opacity:1;fill-rule:nonzero;stroke:none"
       inkscape:connector-curvature="0" /><path
       d="m 270.849,14.009 1.042,0 c 0.01,-0.8949 0.291,-1.5879 0.848,-2.0817 0.554,-0.4937 1.335,-0.7402 2.343,-0.7402 0.884,0 1.579,0.1988 2.086,0.5981 0.507,0.3976 0.759,0.946 0.759,1.646 0,0.6465 -0.177,1.1415 -0.533,1.4809 -0.355,0.3383 -1.06,0.6441 -2.12,0.9168 l -1.079,0.2688 c -1.162,0.2988 -1.965,0.6777 -2.409,1.1371 -0.444,0.4605 -0.666,1.107 -0.666,1.9394 0,0.9199 0.337,1.6582 1.01,2.2129 0.672,0.5543 1.572,0.8332 2.698,0.8332 1.192,0 2.123,-0.3039 2.793,-0.9101 0.673,-0.6071 1.014,-1.4543 1.031,-2.5442 l -1.056,0 c -0.016,0.807 -0.269,1.4301 -0.755,1.8695 -0.49,0.4395 -1.176,0.6598 -2.06,0.6598 -0.833,0 -1.477,-0.1891 -1.935,-0.5637 -0.458,-0.3746 -0.685,-0.9039 -0.685,-1.5878 0,-0.52 0.148,-0.9293 0.446,-1.2301 0.298,-0.3012 0.79,-0.5383 1.481,-0.7129 l 1.326,-0.3317 c 1.309,-0.3289 2.231,-0.7453 2.76,-1.248 0.528,-0.5043 0.792,-1.1981 0.792,-2.0828 0,-1.0172 -0.347,-1.8192 -1.043,-2.4047 -0.697,-0.5859 -1.649,-0.8789 -2.856,-0.8789 -1.351,0 -2.393,0.3172 -3.123,0.9527 -0.73,0.634 -1.095,1.5422 -1.095,2.725"
       id="path3030"
       style="fill:#fa3105;fill-opacity:1;fill-rule:nonzero;stroke:none"
       inkscape:connector-curvature="0" /><path
       d="m 289.564,21.9273 1.041,0 0,-7.155 c 0,-1.2594 0.259,-2.1715 0.776,-2.7371 0.515,-0.5657 1.347,-0.8485 2.494,-0.8485 1.145,0 1.98,0.2828 2.5,0.8485 0.521,0.5656 0.784,1.4777 0.784,2.7371 l 0,7.155 1.039,0 0,-7.3015 c 0,-1.4442 -0.361,-2.534 -1.087,-3.2692 -0.723,-0.7343 -1.802,-1.1019 -3.236,-1.1019 -1.431,0 -2.506,0.3664 -3.229,1.0976 -0.722,0.7332 -1.082,1.8243 -1.082,3.2735"
       id="path3032"
       style="fill:#fa3105;fill-opacity:1;fill-rule:nonzero;stroke:none"
       inkscape:connector-curvature="0" /><path
       d="m 309.328,10.5707 0,11.3563 1.071,0 0,-10.4231 5.798,0 0,-0.9332"
       id="path3034"
       style="fill:#fa3105;fill-opacity:1;fill-rule:nonzero;stroke:none"
       inkscape:connector-curvature="0" /><path
       d="m 327.332,10.5707 0,10.4231 -3.523,0 0,0.9332 8.118,0 0,-0.9332 -3.523,0 0,-10.4231"
       id="path3036"
       style="fill:#fa3105;fill-opacity:1;fill-rule:nonzero;stroke:none"
       inkscape:connector-curvature="0" /><path
       d="m 342.082,10.5711 1.07344,0 0,11.3562 -1.07344,0 0,-11.3562 z"
       id="path3038"
       style="fill:#fa3105;fill-opacity:1;fill-rule:nonzero;stroke:none"
       inkscape:connector-curvature="0" /><path
       d="m 354.445,10.5707 0,11.3563 1.15,0 6.412,-9.7446 0,9.7446 1.01,0 0,-11.3563 -1.155,0 -6.391,9.7445 0,-9.7445"
       id="path3040"
       style="fill:#fa3105;fill-opacity:1;fill-rule:nonzero;stroke:none"
       inkscape:connector-curvature="0" /><path
       d="m 382.928,10.5707 -0.108,2.0039 c -0.35,-0.7293 -0.873,-1.2988 -1.569,-1.707 -0.697,-0.4082 -1.496,-0.6129 -2.395,-0.6129 -1.578,0 -2.818,0.5371 -3.727,1.6109 -0.907,1.0746 -1.36,2.5422 -1.36,4.4024 0,1.8453 0.461,3.2976 1.386,4.3601 0.926,1.0617 2.18,1.5918 3.764,1.5918 1.32,0 2.393,-0.3152 3.218,-0.9441 0.824,-0.6293 1.319,-1.5153 1.485,-2.6567 l -1.073,0 c -0.158,0.8387 -0.561,1.4961 -1.201,1.9739 -0.643,0.4777 -1.448,0.7172 -2.415,0.7172 -1.31,0 -2.322,-0.4356 -3.032,-1.3071 -0.712,-0.8707 -1.07,-2.1109 -1.07,-3.7199 0,-1.5574 0.358,-2.7906 1.072,-3.7008 0.716,-0.909 1.685,-1.3633 2.908,-1.3633 1.248,0 2.221,0.3664 2.917,1.1008 0.697,0.7352 1.046,1.7684 1.046,3.1008 l 0,0.0453 -3.748,0 0,0.9332 4.742,0 0,-5.8285"
       id="path3042"
       style="fill:#fa3105;fill-opacity:1;fill-rule:nonzero;stroke:none"
       inkscape:connector-curvature="0" /><path
       d="m 7.95508,14.009 1.0414,0 c 0.01016,-0.8949 0.2918,-1.5879 0.84844,-2.0817 0.55428,-0.4937 1.33518,-0.7402 2.34338,-0.7402 0.8836,0 1.5785,0.1988 2.0855,0.5981 0.5071,0.3976 0.7594,0.946 0.7594,1.646 0,0.6465 -0.1777,1.1415 -0.5332,1.4809 -0.3547,0.3383 -1.0605,0.6441 -2.1199,0.9168 l -1.0789,0.2688 c -1.1625,0.2988 -1.96526,0.6777 -2.40862,1.1371 -0.44453,0.4605 -0.6668,1.107 -0.6668,1.9394 0,0.9199 0.3375,1.6582 1.01016,2.2129 0.67265,0.5543 1.57146,0.8332 2.69766,0.8332 1.1918,0 2.123,-0.3039 2.7937,-0.9101 0.6727,-0.6071 1.0141,-1.4543 1.0301,-2.5442 l -1.0554,0 c -0.0161,0.807 -0.2688,1.4301 -0.7555,1.8695 -0.4899,0.4395 -1.1758,0.6598 -2.0594,0.6598 -0.8332,0 -1.4777,-0.1891 -1.93515,-0.5637 -0.45859,-0.3746 -0.68476,-0.9039 -0.68476,-1.5878 0,-0.52 0.14726,-0.9293 0.44531,-1.2301 0.298,-0.3012 0.791,-0.5383 1.4816,-0.7129 l 1.3262,-0.3317 c 1.309,-0.3289 2.2313,-0.7453 2.7594,-1.248 0.5281,-0.5043 0.793,-1.1981 0.793,-2.0828 0,-1.0172 -0.3477,-1.8192 -1.0434,-2.4047 -0.6969,-0.5859 -1.6492,-0.8789 -2.8563,-0.8789 -1.3515,0 -2.39292,0.3172 -3.123,0.9527 -0.73008,0.634 -1.09492,1.5422 -1.09492,2.725"
       id="path3044"
       style="fill:#fa3105;fill-opacity:1;fill-rule:nonzero;stroke:none"
       inkscape:connector-curvature="0" /><path
       d="m 29.1453,10.5707 0,10.4231 -3.5226,0 0,0.9332 8.1171,0 0,-0.9332 -3.5226,0 0,-10.4231"
       id="path3046"
       style="fill:#fa3105;fill-opacity:1;fill-rule:nonzero;stroke:none"
       inkscape:connector-curvature="0" /><path
       d="m 44.6586,14.9727 4.4023,0 -2.2047,5.8437 -2.1976,-5.8437 z m -2.7281,-4.4016 4.3078,11.3562 1.2492,0 4.3098,-11.3562 -1.095,0 -1.2859,3.4926 -5.0891,0 -1.3101,-3.4926"
       id="path3048"
       style="fill:#fa3105;fill-opacity:1;fill-rule:nonzero;stroke:none"
       inkscape:connector-curvature="0" /><path
       d="m 63.5191,10.5707 0,10.4231 -3.523,0 0,0.9332 8.1176,0 0,-0.9332 -3.5231,0 0,-10.4231"
       id="path3050"
       style="fill:#fa3105;fill-opacity:1;fill-rule:nonzero;stroke:none"
       inkscape:connector-curvature="0" /><path
       d="m 78.2711,10.5711 1.07344,0 0,11.3562 -1.07344,0 0,-11.3562 z"
       id="path3052"
       style="fill:#fa3105;fill-opacity:1;fill-rule:nonzero;stroke:none"
       inkscape:connector-curvature="0" /><path
       d="m 90.0926,14.009 1.0414,0 c 0.0101,-0.8949 0.2918,-1.5879 0.8484,-2.0817 0.5547,-0.4937 1.3352,-0.7402 2.3434,-0.7402 0.8836,0 1.5785,0.1988 2.0855,0.5981 0.5071,0.3976 0.7594,0.946 0.7594,1.646 0,0.6465 -0.1777,1.1415 -0.5332,1.4809 -0.3547,0.3383 -1.0605,0.6441 -2.1199,0.9168 l -1.0789,0.2688 c -1.1625,0.2988 -1.9653,0.6777 -2.4086,1.1371 -0.4446,0.4605 -0.6668,1.107 -0.6668,1.9394 0,0.9199 0.3375,1.6582 1.0101,2.2129 0.6727,0.5543 1.5715,0.8332 2.6977,0.8332 1.1918,0 2.123,-0.3039 2.7937,-0.9101 0.6727,-0.6071 1.0141,-1.4543 1.0301,-2.5442 l -1.0554,0 c -0.0161,0.807 -0.2688,1.4301 -0.7555,1.8695 -0.4899,0.4395 -1.1758,0.6598 -2.0594,0.6598 -0.8332,0 -1.4777,-0.1891 -1.9351,-0.5637 -0.4586,-0.3746 -0.6848,-0.9039 -0.6848,-1.5878 0,-0.52 0.1476,-0.9293 0.4453,-1.2301 0.298,-0.3012 0.791,-0.5383 1.4816,-0.7129 l 1.3262,-0.3317 c 1.309,-0.3289 2.2313,-0.7453 2.7594,-1.248 0.5281,-0.5043 0.793,-1.1981 0.793,-2.0828 0,-1.0172 -0.3477,-1.8192 -1.0434,-2.4047 -0.6969,-0.5859 -1.6492,-0.8789 -2.8563,-0.8789 -1.3515,0 -2.3925,0.3172 -3.123,0.9527 -0.7301,0.634 -1.0949,1.5422 -1.0949,2.725"
       id="path3054"
       style="fill:#fa3105;fill-opacity:1;fill-rule:nonzero;stroke:none"
       inkscape:connector-curvature="0" /><path
       d="m 111.283,10.5707 0,10.4231 -3.523,0 0,0.9332 8.117,0 0,-0.9332 -3.522,0 0,-10.4231"
       id="path3056"
       style="fill:#fa3105;fill-opacity:1;fill-rule:nonzero;stroke:none"
       inkscape:connector-curvature="0" /><path
       d="m 126.033,10.5711 1.07383,0 0,11.3562 -1.07383,0 0,-11.3562 z"
       id="path3058"
       style="fill:#fa3105;fill-opacity:1;fill-rule:nonzero;stroke:none"
       inkscape:connector-curvature="0" /><path
       d="m 146.351,14.2793 1.026,0 c -0.087,-1.2594 -0.531,-2.2453 -1.33,-2.9574 -0.799,-0.7121 -1.866,-1.0664 -3.204,-1.0664 -1.526,0 -2.732,0.5351 -3.616,1.6058 -0.884,1.0727 -1.325,2.541 -1.325,4.4067 0,1.8504 0.446,3.3047 1.337,4.3632 0.892,1.0594 2.103,1.5887 3.636,1.5887 1.284,0 2.323,-0.3281 3.118,-0.9828 0.794,-0.6555 1.22,-1.5332 1.277,-2.6332 l -1.025,0 c -0.089,0.8324 -0.433,1.4899 -1.034,1.9695 -0.602,0.4809 -1.381,0.7211 -2.336,0.7211 -1.229,0 -2.184,-0.4383 -2.868,-1.3136 -0.685,-0.8778 -1.026,-2.109 -1.026,-3.6977 0,-1.5988 0.349,-2.8504 1.045,-3.7543 0.697,-0.9051 1.66,-1.3562 2.887,-1.3562 1.002,0 1.809,0.2734 2.418,0.8238 0.608,0.5508 0.949,1.3113 1.02,2.2828"
       id="path3060"
       style="fill:#fa3105;fill-opacity:1;fill-rule:nonzero;stroke:none"
       inkscape:connector-curvature="0" /><path
       d="m 159.453,14.9727 4.401,0 -2.203,5.8437 -2.198,-5.8437 z m -2.73,-4.4016 4.31,11.3562 1.249,0 4.31,-11.3562 -1.095,0 -1.288,3.4926 -5.087,0 -1.312,-3.4926"
       id="path3062"
       style="fill:#fa3105;fill-opacity:1;fill-rule:nonzero;stroke:none"
       inkscape:connector-curvature="0" /><path
       d="m 176.479,10.5707 0,11.3563 1.072,0 0,-10.4231 5.797,0 0,-0.9332"
       id="path3064"
       style="fill:#fa3105;fill-opacity:1;fill-rule:nonzero;stroke:none"
       inkscape:connector-curvature="0" /><path
       d="m 337.785,49.0324 44.972,0 0,61.9156 -46.487,0 0,-11.4335 33.918,0 0,-15.9309 -29.625,0 0,-10.5918 29.625,0 0,-13.1988 -32.403,0 0,-10.7606 z m 46.993,-2.0199 -49.013,0 0,14.8004 32.403,0 0,9.1586 -29.625,0 0,14.632 29.625,0 0,11.8906 -33.918,0 0,15.4739 50.528,0"
       id="path3066"
       style="fill:#0072b2;fill-opacity:1;fill-rule:nonzero;stroke:none"
       inkscape:connector-curvature="0" /><path
       d="m 22.543,75.3871 29.6293,0 0,12.6121 -29.6293,0 0,11.1785 32.4047,0 0,12.7803 -46.99223,0 0,-63.9357 48.50933,0 0,13.4543 -33.9218,0"
       id="path3068"
       style="fill:#0072b2;fill-opacity:1;fill-rule:nonzero;stroke:none"
       inkscape:connector-curvature="0" /><path
       d="m 311.525,49.0324 13.323,0 0,61.9156 -12.567,0 0,-42.5367 -25.304,42.5367 -13.157,0 0,-61.9156 12.568,0 0,42.5383 25.137,-42.5383 z m 15.343,-2.0199 -16.495,0 -21.966,37.1691 0,-37.1691 -16.607,0 0,65.9555 16.326,0 22.135,-37.211 0,37.211 16.607,0"
       id="path3070"
       style="fill:#0072b2;fill-opacity:1;fill-rule:nonzero;stroke:none"
       inkscape:connector-curvature="0" /><path
       d="m 105.164,72.084 -23.7191,39.874 -14.7418,0 0,-63.9353 14.5871,0 0,39.8539 23.2588,-39.3578 0.294,-0.4961 14.908,0 0,63.9353 -14.587,0"
       id="path3072"
       style="fill:#0072b2;fill-opacity:1;fill-rule:nonzero;stroke:none"
       inkscape:connector-curvature="0" /><path
       d="m 227.581,87.2488 21.383,0 c -0.38,3.9621 -1.361,6.6074 -3.132,8.491 -1.815,1.9321 -4.262,2.8715 -7.484,2.8715 -3.43,0 -6.08,-0.9574 -7.871,-2.8472 -1.754,-1.8504 -2.662,-4.5016 -2.896,-8.5153 m 23.557,-2.0199 -25.652,0 0.03,1.0391 c 0.15,5.1347 1.227,8.4929 3.495,10.8859 2.188,2.3078 5.33,3.4771 9.337,3.4771 3.758,0 6.77,-1.1806 8.955,-3.5083 2.271,-2.4141 3.431,-5.7512 3.765,-10.8184 l 0.07,-1.0754 z M 212.129,68.2031 c 1.649,-5.4531 4.681,-9.8203 9.027,-12.9937 4.693,-3.4278 10.514,-5.1672 17.303,-5.1672 8.306,0 14.97,2.816 19.803,8.368 4.87,5.5925 7.34,13.316 7.34,22.9543 0,9.4871 -2.431,17.0519 -7.226,22.4815 -4.762,5.392 -11.39,8.127 -19.699,8.127 -8.822,0 -15.71,-2.691 -20.472,-7.996 -4.789,-5.3375 -7.22,-13.0922 -7.22,-23.0528 0,-1.098 0.008,-1.923 0.028,-2.4836 l 0.011,-0.3515 -0.039,-0.0536 0,-1.2886 40.095,0 -0.085,-1.091 c -0.35,-4.4047 -1.563,-7.8305 -3.609,-10.186 -2.26,-2.6015 -5.523,-3.9207 -9.697,-3.9207 -2.928,0 -5.381,0.5961 -7.293,1.7727 -1.768,1.0836 -3.208,2.7238 -4.287,4.8812 l -13.98,0 z m 26.33,-20.1808 c -7.227,0 -13.448,1.8695 -18.495,5.5562 -5.064,3.6977 -8.476,8.8738 -10.143,15.384 l -0.321,1.2605 17.899,0 0.269,-0.5949 c 0.937,-2.0765 2.209,-3.6187 3.785,-4.5851 1.59,-0.9789 3.689,-1.4739 6.236,-1.4739 3.614,0 6.286,1.0555 8.173,3.2262 1.59,1.8309 2.602,4.4965 3.01,7.9313 l -39.908,0 0.019,3.9988 c -0.012,0.5492 -0.019,1.2828 -0.019,2.1988 0,10.4727 2.604,18.6828 7.738,24.4018 5.162,5.752 12.555,8.667 21.975,8.667 8.915,0 16.052,-2.964 21.214,-8.81 5.13,-5.8103 7.731,-13.8244 7.731,-23.8185 0,-10.1403 -2.636,-18.3094 -7.837,-24.2805 -5.234,-6.0125 -12.408,-9.0617 -21.326,-9.0617"
       id="path3074"
       style="fill:#0072b2;fill-opacity:1;fill-rule:nonzero;stroke:none"
       inkscape:connector-curvature="0" /><path
       d="m 162.821,65.5566 c -1.999,-2.107 -4.867,-3.1625 -8.606,-3.1625 -3.483,0 -6.223,1.0645 -8.219,3.1895 -1.999,2.1273 -3.162,5.1887 -3.492,10.193 l 23.534,0 c -0.146,-5.0418 -1.218,-8.1114 -3.217,-10.22 m 19.767,20.7231 -40.009,0 c 0.33,4.1863 1.444,7.3961 3.362,9.6019 2.069,2.3836 5.047,3.5746 8.934,3.5746 2.749,0 5.004,-0.5406 6.764,-1.6222 1.759,-1.0797 3.152,-2.7574 4.178,-5.0309 l 15.947,0 c -1.614,6.3055 -4.866,11.2449 -9.76,14.8179 -4.893,3.575 -10.86,5.362 -17.899,5.362 -8.651,0 -15.506,-2.905 -20.564,-8.715 -5.061,-5.8098 -7.589,-13.6828 -7.589,-23.6172 0,-9.7879 2.493,-17.5043 7.478,-23.15 4.985,-5.6442 11.804,-8.468 20.456,-8.468 9.164,0 16.239,2.7777 21.224,8.3317 4.986,5.5527 7.478,13.4632 7.478,23.7269 0,1.1129 -0.008,1.9512 -0.025,2.5188 l 0.025,0.0375"
       id="path3076"
       style="fill:#0072b2;fill-opacity:1;fill-rule:nonzero;stroke:none"
       inkscape:connector-curvature="0" /><path
       d="m 199.644,79.9902 c 0,-2.1359 -1.73,-3.866 -3.866,-3.866 -2.136,0 -3.866,1.7301 -3.866,3.866 0,2.1364 1.73,3.8664 3.866,3.8664 2.136,0 3.866,-1.73 3.866,-3.8664"
       id="path3078"
       style="fill:#fa3105;fill-opacity:1;fill-rule:nonzero;stroke:none"
       inkscape:connector-curvature="0" /></g></svg>
