<?xml version="1.0" encoding="UTF-8" standalone="no"?>
<!-- Created with Inkscape (http://www.inkscape.org/) -->

<svg
   xmlns:dc="http://purl.org/dc/elements/1.1/"
   xmlns:cc="http://creativecommons.org/ns#"
   xmlns:rdf="http://www.w3.org/1999/02/22-rdf-syntax-ns#"
   xmlns:svg="http://www.w3.org/2000/svg"
   xmlns="http://www.w3.org/2000/svg"
   xmlns:sodipodi="http://sodipodi.sourceforge.net/DTD/sodipodi-0.dtd"
   xmlns:inkscape="http://www.inkscape.org/namespaces/inkscape"
   width="115.11655"
   height="260.47531"
   id="svg9409"
   version="1.1"
   inkscape:version="0.48.2 r9819"
   sodipodi:docname="circled_arrow_left.svg">
  <defs
     id="defs9411">
    <clipPath
       clipPathUnits="userSpaceOnUse"
       id="clipPath4306">
      <path
         inkscape:connector-curvature="0"
         d="m -89.0327,444.033 178.0654,0 0,-178.066 -178.0654,0 0,178.066 z"
         id="path4308" />
    </clipPath>
    <clipPath
       clipPathUnits="userSpaceOnUse"
       id="clipPath4290">
      <path
         inkscape:connector-curvature="0"
         d="m -74.0327,429.033 148.0654,0 0,-148.066 -148.0654,0 0,148.066 z"
         id="path4292" />
    </clipPath>
  </defs>
  <sodipodi:namedview
     id="base"
     pagecolor="#ffffff"
     bordercolor="#666666"
     borderopacity="1.0"
     inkscape:pageopacity="0.0"
     inkscape:pageshadow="2"
     inkscape:zoom="1.32"
     inkscape:cx="2.0583"
     inkscape:cy="130.23765"
     inkscape:document-units="px"
     inkscape:current-layer="layer1"
     showgrid="false"
     fit-margin-top="0"
     fit-margin-left="-111"
     fit-margin-right="0"
     fit-margin-bottom="0"
     inkscape:window-width="995"
     inkscape:window-height="529"
     inkscape:window-x="20"
     inkscape:window-y="20"
     inkscape:window-maximized="0" />
  <metadata
     id="metadata9414">
    <rdf:RDF>
      <cc:Work
         rdf:about="">
        <dc:format>image/svg+xml</dc:format>
        <dc:type
           rdf:resource="http://purl.org/dc/dcmitype/StillImage" />
        <dc:title />
      </cc:Work>
    </rdf:RDF>
  </metadata>
  <g
     inkscape:label="Layer 1"
     inkscape:groupmode="layer"
     id="layer1"
     transform="translate(-372.94173,-402.12453)">
    <path
       d="m 373.2321,662.59984 114.82618,-62.39256 0,-145.17878 -114.82618,-52.90397 z"
       style="fill:#e74C3C;fill-opacity:1;fill-rule:nonzero;stroke:none"
       id="path4138"
       inkscape:connector-curvature="0"
       sodipodi:nodetypes="ccccc" />
    <g
       transform="matrix(1.25,0,0,-1.25,373.2321,974.05874)"
       id="g4294">
      <g
         style="opacity:0.58999598"
         id="g4296"
         clip-path="url(#clipPath4290)">
        <g
           id="g4298"
           transform="translate(74.0327,355)">
          <path
             inkscape:connector-curvature="0"
             id="path4300"
             style="fill:#ffffff;fill-opacity:1;fill-rule:nonzero;stroke:none"
             d="m 0,0 c 0,-40.887 -33.146,-74.033 -74.032,-74.033 -40.888,0 -74.033,33.146 -74.033,74.033 0,40.887 33.145,74.033 74.033,74.033 C -33.146,74.033 0,40.887 0,0" />
        </g>
      </g>
    </g>
    <g
       transform="matrix(1.25,0,0,-1.25,373.2321,974.05874)"
       clip-path="url(#clipPath4306)"
       id="g4312"
       style="opacity:0.24000501">
      <g
         transform="translate(74.0327,355)"
         id="g4314">
        <path
           d="m 0,0 c 0,-40.887 -33.146,-74.033 -74.032,-74.033 -40.888,0 -74.033,33.146 -74.033,74.033 0,40.887 33.145,74.033 74.033,74.033 C -33.146,74.033 0,40.887 0,0 z"
           style="fill:none;stroke:#ffffff;stroke-width:30;stroke-linecap:butt;stroke-linejoin:miter;stroke-miterlimit:4;stroke-opacity:1;stroke-dasharray:none"
           id="path4316"
           inkscape:connector-curvature="0" />
      </g>
    </g>
    <path
       inkscape:connector-curvature="0"
       id="path4324"
       style="fill:none;stroke:#E74C3C;stroke-width:1.25;stroke-linecap:butt;stroke-linejoin:miter;stroke-miterlimit:4;stroke-opacity:1;stroke-dasharray:none"
       d="m 404.74022,548.86337 -20.04125,-20.04375 20.04125,-17.065" />
  </g>
</svg>
