<?xml version="1.0" encoding="UTF-8" standalone="no"?>
<!-- Created with Inkscape (http://www.inkscape.org/) -->

<svg
   xmlns:dc="http://purl.org/dc/elements/1.1/"
   xmlns:cc="http://creativecommons.org/ns#"
   xmlns:rdf="http://www.w3.org/1999/02/22-rdf-syntax-ns#"
   xmlns:svg="http://www.w3.org/2000/svg"
   xmlns="http://www.w3.org/2000/svg"
   xmlns:sodipodi="http://sodipodi.sourceforge.net/DTD/sodipodi-0.dtd"
   xmlns:inkscape="http://www.inkscape.org/namespaces/inkscape"
   width="111.29025"
   height="222.57812"
   id="svg4845"
   version="1.1"
   inkscape:version="0.48.2 r9819"
   sodipodi:docname="circled_arrow_left_white.svg">
  <defs
     id="defs4847">
    <clipPath
       clipPathUnits="userSpaceOnUse"
       id="clipPath3142">
      <path
         inkscape:connector-curvature="0"
         d="M 0,600 800,600 800,0 0,0 0,600 z"
         id="path3144" />
    </clipPath>
    <clipPath
       clipPathUnits="userSpaceOnUse"
       id="clipPath3148">
      <path
         inkscape:connector-curvature="0"
         d="M 0,0 800,0 800,600 0,600 0,0 z"
         id="path3150" />
    </clipPath>
    <clipPath
       clipPathUnits="userSpaceOnUse"
       id="clipPath3154">
      <path
         inkscape:connector-curvature="0"
         d="m 0,265 90,0 0,180 -90,0 0,-180 z"
         id="path3156" />
    </clipPath>
    <clipPath
       clipPathUnits="userSpaceOnUse"
       id="clipPath3158">
      <path
         inkscape:connector-curvature="0"
         d="m 0,265.967 89.0322,0 0,178.066 -89.0322,0 0,-178.066 z"
         id="path3160" />
    </clipPath>
    <clipPath
       clipPathUnits="userSpaceOnUse"
       id="clipPath3106">
      <path
         inkscape:connector-curvature="0"
         d="M 0,600 800,600 800,0 0,0 0,600 z"
         id="path3108" />
    </clipPath>
    <clipPath
       clipPathUnits="userSpaceOnUse"
       id="clipPath3112">
      <path
         inkscape:connector-curvature="0"
         d="M 0,0 800,0 800,600 0,600 0,0 z"
         id="path3114" />
    </clipPath>
    <clipPath
       clipPathUnits="userSpaceOnUse"
       id="clipPath3118">
      <path
         inkscape:connector-curvature="0"
         d="m 0,280 75,0 0,150 -75,0 0,-150 z"
         id="path3120" />
    </clipPath>
    <clipPath
       clipPathUnits="userSpaceOnUse"
       id="clipPath3122">
      <path
         inkscape:connector-curvature="0"
         d="m 0,280.967 74.0322,0 0,148.066 -74.0322,0 0,-148.066 z"
         id="path3124" />
    </clipPath>
  </defs>
  <sodipodi:namedview
     id="base"
     pagecolor="#ffffff"
     bordercolor="#666666"
     borderopacity="1.0"
     inkscape:pageopacity="0.0"
     inkscape:pageshadow="2"
     inkscape:zoom="1.4"
     inkscape:cx="-7.7419423"
     inkscape:cy="111.28906"
     inkscape:document-units="px"
     inkscape:current-layer="layer1"
     showgrid="false"
     fit-margin-top="0"
     fit-margin-left="0"
     fit-margin-right="0"
     fit-margin-bottom="0"
     inkscape:window-width="1169"
     inkscape:window-height="604"
     inkscape:window-x="20"
     inkscape:window-y="20"
     inkscape:window-maximized="0" />
  <metadata
     id="metadata4850">
    <rdf:RDF>
      <cc:Work
         rdf:about="">
        <dc:format>image/svg+xml</dc:format>
        <dc:type
           rdf:resource="http://purl.org/dc/dcmitype/StillImage" />
        <dc:title></dc:title>
      </cc:Work>
    </rdf:RDF>
  </metadata>
  <g
     inkscape:label="Layer 1"
     inkscape:groupmode="layer"
     id="layer1"
     transform="translate(-319.35487,-421.07312)">
    <g
       transform="matrix(-1.25,0,0,-1.25,430.64512,976.11218)"
       id="g3102">
      <g
         id="g3104"
         clip-path="url(#clipPath3106)">
        <g
           id="g3110"
           clip-path="url(#clipPath3112)">
          <g
             id="g3116" />
          <g
             id="g3126">
            <g
               style="opacity:0.58999999"
               clip-path="url(#clipPath3118)"
               id="g3128">
              <g
                 id="g3130" />
              <g
                 id="g3132">
                <g
                   clip-path="url(#clipPath3122)"
                   id="g3134">
                  <path
                     inkscape:connector-curvature="0"
                     d="m 74.0322,355 c 0,-40.887 -33.146,-74.033 -74.032,-74.033 -40.888,0 -74.033,33.146 -74.033,74.033 0,40.887 33.145,74.033 74.033,74.033 40.886,0 74.032,-33.146 74.032,-74.033"
                     style="fill:#ff1900;fill-opacity:1;fill-rule:nonzero;stroke:none"
                     id="path3136" />
                </g>
              </g>
            </g>
          </g>
        </g>
      </g>
    </g>
    <g
       transform="matrix(-1.25,0,0,-1.25,430.64512,976.11218)"
       id="g3138">
      <g
         id="g3140"
         clip-path="url(#clipPath3142)">
        <g
           id="g3146"
           clip-path="url(#clipPath3148)">
          <g
             id="g3152" />
          <g
             id="g3162">
            <g
               style="opacity:0.23999999"
               clip-path="url(#clipPath3154)"
               id="g3164">
              <g
                 id="g3166" />
              <g
                 id="g3168">
                <g
                   clip-path="url(#clipPath3158)"
                   id="g3170">
                  <g
                     transform="translate(74.0322,355)"
                     id="g3172">
                    <path
                       inkscape:connector-curvature="0"
                       d="m 0,0 c 0,-40.887 -33.146,-74.033 -74.032,-74.033 -40.888,0 -74.033,33.146 -74.033,74.033 0,40.887 33.145,74.033 74.033,74.033 C -33.146,74.033 0,40.887 0,0 z"
                       style="fill:none;stroke:#ff1900;stroke-width:30;stroke-linecap:butt;stroke-linejoin:miter;stroke-miterlimit:4;stroke-opacity:1;stroke-dasharray:none"
                       id="path3174" />
                  </g>
                </g>
              </g>
            </g>
          </g>
        </g>
      </g>
    </g>
    <g
       transform="matrix(-1.25,0,0,-1.25,399.83651,548.48799)"
       id="g3184">
      <path
         inkscape:connector-curvature="0"
         id="path3186"
         style="fill:none;stroke:#ffffff;stroke-width:1;stroke-linecap:butt;stroke-linejoin:miter;stroke-miterlimit:4;stroke-opacity:1;stroke-dasharray:none"
         d="m 0,-1.942852 -16.033,16.035 16.033,13.652" />
    </g>
  </g>
</svg>
