<?xml version="1.0" encoding="UTF-8" standalone="no"?>
<!-- Created with Inkscape (http://www.inkscape.org/) -->

<svg
   xmlns:dc="http://purl.org/dc/elements/1.1/"
   xmlns:cc="http://creativecommons.org/ns#"
   xmlns:rdf="http://www.w3.org/1999/02/22-rdf-syntax-ns#"
   xmlns:svg="http://www.w3.org/2000/svg"
   xmlns="http://www.w3.org/2000/svg"
   xmlns:sodipodi="http://sodipodi.sourceforge.net/DTD/sodipodi-0.dtd"
   xmlns:inkscape="http://www.inkscape.org/namespaces/inkscape"
   version="1.1"
   width="477.02866"
   height="131.67288"
   id="svg3004"
   xml:space="preserve"
   inkscape:version="0.48.2 r9819"
   sodipodi:docname="eng_2.svg"><sodipodi:namedview
     pagecolor="#ffffff"
     bordercolor="#666666"
     borderopacity="1"
     objecttolerance="10"
     gridtolerance="10"
     guidetolerance="10"
     inkscape:pageopacity="0"
     inkscape:pageshadow="2"
     inkscape:window-width="1243"
     inkscape:window-height="619"
     id="namedview36"
     showgrid="false"
     fit-margin-top="1"
     fit-margin-left="3"
     fit-margin-right="3"
     fit-margin-bottom="1"
     inkscape:zoom="2"
     inkscape:cx="186.75547"
     inkscape:cy="77.056597"
     inkscape:window-x="0"
     inkscape:window-y="0"
     inkscape:window-maximized="0"
     inkscape:current-layer="svg3004" /><metadata
     id="metadata3010"><rdf:RDF><cc:Work
         rdf:about=""><dc:format>image/svg+xml</dc:format><dc:type
           rdf:resource="http://purl.org/dc/dcmitype/StillImage" /><dc:title></dc:title></cc:Work></rdf:RDF></metadata><defs
     id="defs3008"><clipPath
       id="clipPath3020"><path
         d="m 0,0 3989.5,0 0,1222.1 L 0,1222.1 0,0 z"
         id="path3022"
         inkscape:connector-curvature="0" /></clipPath></defs><path
     inkscape:connector-curvature="0"
     style="fill:none;fill-opacity:1;fill-rule:nonzero;stroke:#0072b2;stroke-opacity:1;stroke-width:2.3;stroke-miterlimit:4;stroke-dasharray:none"
     id="path3068"
     d="m 21.2349,49.257375 37.036625,0 0,-15.765125 -37.036625,0 0,-13.973125 40.505875,0 0,-15.975375 -58.7402875,0 0,79.919625 60.6366625,0 0,-16.817875 -42.40225,0 z" /><path
     inkscape:connector-curvature="0"
     style="fill:none;fill-opacity:1;fill-rule:nonzero;stroke:#0072b2;stroke-opacity:1;stroke-width:2.3;stroke-miterlimit:4;stroke-dasharray:none"
     id="path3072"
     d="m 124.51115,53.38625 -29.648875,-49.8425 -18.42725,0 0,79.919125 18.233875,0 0,-49.817375 29.0735,49.19725 0.3675,0.620125 18.635,0 0,-79.919125 -18.23375,0 z" /><path
     inkscape:connector-curvature="0"
     style="fill:none;fill-opacity:1;fill-rule:nonzero;stroke:#0072b2;stroke-opacity:1;stroke-width:2.3;stroke-miterlimit:4;stroke-dasharray:none"
     id="path3076"
     d="m 196.5824,61.5455 c -2.49875,2.63375 -6.08375,3.953125 -10.7575,3.953125 -4.35375,0 -7.77875,-1.330625 -10.27375,-3.986875 -2.49875,-2.659125 -3.9525,-6.485875 -4.365,-12.74125 l 29.4175,0 c -0.1825,6.30225 -1.5225,10.13925 -4.02125,12.775 m 24.70875,-25.903875 -50.01125,0 c 0.4125,-5.232875 1.805,-9.245125 4.2025,-12.002375 2.58625,-2.9795 6.30875,-4.46825 11.1675,-4.46825 3.43625,0 6.255,0.67575 8.455,2.02775 2.19875,1.349625 3.94,3.44675 5.2225,6.288625 l 19.93375,0 C 218.24365,19.6055 214.17865,13.43125 208.06115,8.965 201.9449,4.49625 194.48615,2.2625 185.6874,2.2625 c -10.81375,0 -19.3825,3.63125 -25.705,10.89375 -6.32625,7.26225 -9.48625,17.1035 -9.48625,29.5215 0,12.234875 3.11625,21.880375 9.3475,28.9375 6.23125,7.05525 14.755,10.585 25.57,10.585 11.455,0 20.29875,-3.472125 26.53,-10.414625 6.2325,-6.940875 9.3475,-16.829 9.3475,-29.658625 0,-1.391125 -0.01,-2.439 -0.0312,-3.1485 l 0.0312,-0.04687 z" /></svg>