<?xml version="1.0" encoding="UTF-8" standalone="no"?>
<!-- Created with Inkscape (http://www.inkscape.org/) -->

<svg
   xmlns:dc="http://purl.org/dc/elements/1.1/"
   xmlns:cc="http://creativecommons.org/ns#"
   xmlns:rdf="http://www.w3.org/1999/02/22-rdf-syntax-ns#"
   xmlns:svg="http://www.w3.org/2000/svg"
   xmlns="http://www.w3.org/2000/svg"
   xmlns:sodipodi="http://sodipodi.sourceforge.net/DTD/sodipodi-0.dtd"
   xmlns:inkscape="http://www.inkscape.org/namespaces/inkscape"
   version="1.1"
   width="477.02866"
   height="131.67288"
   id="svg3004"
   xml:space="preserve"
   inkscape:version="0.48.2 r9819"
   sodipodi:docname="eng_4.svg"><sodipodi:namedview
     pagecolor="#ffffff"
     bordercolor="#666666"
     borderopacity="1"
     objecttolerance="10"
     gridtolerance="10"
     guidetolerance="10"
     inkscape:pageopacity="0"
     inkscape:pageshadow="2"
     inkscape:window-width="1243"
     inkscape:window-height="619"
     id="namedview36"
     showgrid="false"
     fit-margin-top="1"
     fit-margin-left="3"
     fit-margin-right="3"
     fit-margin-bottom="1"
     inkscape:zoom="2"
     inkscape:cx="226.75547"
     inkscape:cy="77.056597"
     inkscape:window-x="0"
     inkscape:window-y="0"
     inkscape:window-maximized="0"
     inkscape:current-layer="svg3004" /><metadata
     id="metadata3010"><rdf:RDF><cc:Work
         rdf:about=""><dc:format>image/svg+xml</dc:format><dc:type
           rdf:resource="http://purl.org/dc/dcmitype/StillImage" /><dc:title></dc:title></cc:Work></rdf:RDF></metadata><defs
     id="defs3008"><clipPath
       id="clipPath3020"><path
         d="m 0,0 3989.5,0 0,1222.1 L 0,1222.1 0,0 z"
         id="path3022"
         inkscape:connector-curvature="0" /></clipPath></defs><path
     inkscape:connector-curvature="0"
     style="fill:#0072b2;fill-opacity:1;fill-rule:nonzero;stroke:none"
     id="path3066"
     d="m 415.2874,82.20075 56.215,0 0,-77.3945 -58.10875,0 0,14.291875 42.3975,0 0,19.913625 -37.03125,0 0,13.23975 37.03125,0 0,16.4985 -40.50375,0 0,13.45075 z m 58.74125,2.524875 -61.26625,0 0,-18.5005 40.50375,0 0,-11.44825 -37.03125,0 0,-18.29 37.03125,0 0,-14.86325 -42.3975,0 0,-19.342375 63.16,0" /><path
     inkscape:connector-curvature="0"
     style="fill:none;fill-opacity:1;fill-rule:nonzero;stroke:#0072b2;stroke-opacity:1;stroke-width:2.3;stroke-miterlimit:4;stroke-dasharray:none"
     id="path3068"
     d="m 21.2349,49.257375 37.036625,0 0,-15.765125 -37.036625,0 0,-13.973125 40.505875,0 0,-15.975375 -58.7402875,0 0,79.919625 60.6366625,0 0,-16.817875 -42.40225,0 z" /><path
     inkscape:connector-curvature="0"
     style="fill:#0072b2;fill-opacity:1;fill-rule:nonzero;stroke:none"
     id="path3070"
     d="m 382.4624,82.20075 16.65375,0 0,-77.3945 -15.70875,0 0,53.170875 -31.63,-53.170875 -16.44625,0 0,77.3945 15.71,0 0,-53.172875 31.42125,53.172875 z m 19.17875,2.524875 -20.61875,0 -27.4575,-46.461375 0,46.461375 -20.75875,0 0,-82.444375 20.4075,0 27.66875,46.51375 0,-46.51375 20.75875,0" /><path
     inkscape:connector-curvature="0"
     style="fill:none;fill-opacity:1;fill-rule:nonzero;stroke:#0072b2;stroke-opacity:1;stroke-width:2.3;stroke-miterlimit:4;stroke-dasharray:none"
     id="path3072"
     d="m 124.51115,53.38625 -29.648875,-49.8425 -18.42725,0 0,79.919125 18.233875,0 0,-49.817375 29.0735,49.19725 0.3675,0.620125 18.635,0 0,-79.919125 -18.23375,0 z" /><path
     inkscape:connector-curvature="0"
     style="fill:#0072b2;fill-opacity:1;fill-rule:nonzero;stroke:none"
     id="path3074"
     d="m 277.5324,34.43025 26.72875,0 c -0.475,-4.952625 -1.70125,-8.25925 -3.915,-10.61375 -2.26875,-2.415125 -5.3275,-3.589375 -9.355,-3.589375 -4.2875,0 -7.6,1.19675 -9.83875,3.559 -2.1925,2.313 -3.3275,5.627 -3.62,10.644125 m 29.44625,2.524875 -32.065,0 0.0375,-1.298875 c 0.1875,-6.418375 1.53375,-10.616125 4.36875,-13.607375 2.735,-2.88475 6.6625,-4.346375 11.67125,-4.346375 4.6975,0 8.4625,1.47575 11.19375,4.385375 2.83875,3.017625 4.28875,7.189 4.70625,13.523 l 0.0875,1.34425 z m -48.76125,21.28225 c 2.06125,6.816375 5.85125,12.275375 11.28375,16.242125 5.86625,4.28475 13.1425,6.459 21.62875,6.459 10.3825,0 18.7125,-3.52 24.75375,-10.46 6.0875,-6.990625 9.175,-16.645 9.175,-28.692875 0,-11.858875 -3.03875,-21.314875 -9.0325,-28.101875 -5.9525,-6.74 -14.2375,-10.15875 -24.62375,-10.15875 -11.0275,0 -19.6375,3.36375 -25.59,9.995 -5.98625,6.671875 -9.025,16.36525 -9.025,28.816 0,1.3725 0.01,2.40375 0.035,3.1045 l 0.0137,0.439375 -0.0487,0.067 0,1.61075 50.11875,0 -0.10625,1.36375 c -0.4375,5.505875 -1.95375,9.788125 -4.51125,12.7325 -2.825,3.251875 -6.90375,4.900875 -12.12125,4.900875 -3.66,0 -6.72625,-0.745125 -9.11625,-2.215875 -2.21,-1.3545 -4.01,-3.40475 -5.35875,-6.1015 l -17.475,0 z m 32.9125,25.226 c -9.03375,0 -16.81,-2.336875 -23.11875,-6.94525 -6.33,-4.622125 -10.595,-11.09225 -12.67875,-19.23 l -0.40125,-1.575625 22.37375,0 0.33625,0.743625 c 1.17125,2.595625 2.76125,4.523375 4.73125,5.731375 1.9875,1.223625 4.61125,1.842375 7.795,1.842375 4.5175,0 7.8575,-1.319375 10.21625,-4.03275 1.9875,-2.288625 3.2525,-5.620625 3.7625,-9.914125 l -49.885,0 0.0238,-4.9985 c -0.015,-0.6865 -0.0238,-1.6035 -0.0238,-2.7485 0,-13.090875 3.255,-23.3535 9.6725,-30.50225 C 270.38615,4.64375 279.6274,1 291.4024,1 c 11.14375,0 20.065,3.705 26.5175,11.0125 6.4125,7.262875 9.66375,17.2805 9.66375,29.773125 0,12.675375 -3.295,22.88675 -9.79625,30.350625 -6.5425,7.515625 -15.51,11.327125 -26.6575,11.327125" /><path
     inkscape:connector-curvature="0"
     style="fill:none;fill-opacity:1;fill-rule:nonzero;stroke:#0072b2;stroke-opacity:1;stroke-width:2.3;stroke-miterlimit:4;stroke-dasharray:none"
     id="path3076"
     d="m 196.5824,61.5455 c -2.49875,2.63375 -6.08375,3.953125 -10.7575,3.953125 -4.35375,0 -7.77875,-1.330625 -10.27375,-3.986875 -2.49875,-2.659125 -3.9525,-6.485875 -4.365,-12.74125 l 29.4175,0 c -0.1825,6.30225 -1.5225,10.13925 -4.02125,12.775 m 24.70875,-25.903875 -50.01125,0 c 0.4125,-5.232875 1.805,-9.245125 4.2025,-12.002375 2.58625,-2.9795 6.30875,-4.46825 11.1675,-4.46825 3.43625,0 6.255,0.67575 8.455,2.02775 2.19875,1.349625 3.94,3.44675 5.2225,6.288625 l 19.93375,0 C 218.24365,19.6055 214.17865,13.43125 208.06115,8.965 201.9449,4.49625 194.48615,2.2625 185.6874,2.2625 c -10.81375,0 -19.3825,3.63125 -25.705,10.89375 -6.32625,7.26225 -9.48625,17.1035 -9.48625,29.5215 0,12.234875 3.11625,21.880375 9.3475,28.9375 6.23125,7.05525 14.755,10.585 25.57,10.585 11.455,0 20.29875,-3.472125 26.53,-10.414625 6.2325,-6.940875 9.3475,-16.829 9.3475,-29.658625 0,-1.391125 -0.01,-2.439 -0.0312,-3.1485 l 0.0312,-0.04687 z" /><path
     inkscape:connector-curvature="0"
     style="fill:#fa3105;fill-opacity:1;fill-rule:nonzero;stroke:none"
     id="path3078"
     d="m 242.61115,43.5035 c 0,2.669875 -2.1625,4.8325 -4.8325,4.8325 -2.67,0 -4.8325,-2.162625 -4.8325,-4.8325 0,-2.6705 2.1625,-4.833 4.8325,-4.833 2.67,0 4.8325,2.1625 4.8325,4.833" /></svg>