<?xml version="1.0" encoding="UTF-8" standalone="no"?>
<!-- Created with Inkscape (http://www.inkscape.org/) -->

<svg
   xmlns:dc="http://purl.org/dc/elements/1.1/"
   xmlns:cc="http://creativecommons.org/ns#"
   xmlns:rdf="http://www.w3.org/1999/02/22-rdf-syntax-ns#"
   xmlns:svg="http://www.w3.org/2000/svg"
   xmlns="http://www.w3.org/2000/svg"
   xmlns:sodipodi="http://sodipodi.sourceforge.net/DTD/sodipodi-0.dtd"
   xmlns:inkscape="http://www.inkscape.org/namespaces/inkscape"
   id="svg3004"
   version="1.1"
   inkscape:version="0.48.2 r9819"
   width="581.58752"
   height="250.8275"
   xml:space="preserve"
   sodipodi:docname="ENGENE def2.pdf"><metadata
     id="metadata3010"><rdf:RDF><cc:Work
         rdf:about=""><dc:format>image/svg+xml</dc:format><dc:type
           rdf:resource="http://purl.org/dc/dcmitype/StillImage" /><dc:title></dc:title></cc:Work></rdf:RDF></metadata><defs
     id="defs3008"><clipPath
       clipPathUnits="userSpaceOnUse"
       id="clipPath3020"><path
         d="m 0,595.279 841.89,0 L 841.89,0 0,0 0,595.279 z"
         id="path3022"
         inkscape:connector-curvature="0" /></clipPath></defs><sodipodi:namedview
     pagecolor="#ffffff"
     bordercolor="#666666"
     borderopacity="1"
     objecttolerance="10"
     gridtolerance="10"
     guidetolerance="10"
     inkscape:pageopacity="0"
     inkscape:pageshadow="2"
     inkscape:window-width="1225"
     inkscape:window-height="612"
     id="namedview3006"
     showgrid="false"
     fit-margin-top="0"
     fit-margin-left="0"
     fit-margin-right="0"
     fit-margin-bottom="0"
     inkscape:zoom="1.4254587"
     inkscape:cx="290.79377"
     inkscape:cy="125.41312"
     inkscape:window-x="0"
     inkscape:window-y="0"
     inkscape:window-maximized="0"
     inkscape:current-layer="g3012" /><g
     id="g3012"
     inkscape:groupmode="layer"
     inkscape:label="ENGENE def2"
     transform="matrix(1.25,0,0,-1.25,-235.3875,497.46375)"><path
       d="m 653.58,197.309 -465.27,0 0,200.662 465.27,0 0,-200.662 z"
       style="fill:#ff3300;fill-opacity:1;fill-rule:nonzero;stroke:none"
       id="path3014"
       inkscape:connector-curvature="0" /><g
       id="g3016"><g
         id="g3018"
         clip-path="url(#clipPath3020)"><g
           id="g3024"
           transform="translate(444.0928,250.2686)"><path
             d="M 0,0 1.016,0 C 0.928,-1.247 0.49,-2.223 -0.301,-2.928 -1.094,-3.633 -2.15,-3.984 -3.473,-3.984 c -1.511,0 -2.705,0.53 -3.58,1.59 -0.875,1.062 -1.312,2.516 -1.312,4.363 0,1.832 0.441,3.272 1.324,4.32 0.883,1.049 2.082,1.573 3.598,1.573 1.273,0 2.302,-0.325 3.088,-0.973 C 0.432,6.24 0.852,5.371 0.908,4.282 l -1.015,0 c -0.086,0.824 -0.428,1.475 -1.022,1.95 -0.596,0.476 -1.367,0.714 -2.314,0.714 -1.215,0 -2.162,-0.434 -2.838,-1.301 -0.678,-0.869 -1.016,-2.088 -1.016,-3.661 0,-1.583 0.344,-2.822 1.033,-3.717 0.69,-0.896 1.643,-1.343 2.86,-1.343 0.992,0 1.789,0.271 2.392,0.816 0.604,0.545 0.94,1.298 1.012,2.26"
             style="fill:#ffffff;fill-opacity:1;fill-rule:nonzero;stroke:none"
             id="path3026"
             inkscape:connector-curvature="0" /></g><g
           id="g3028"
           transform="translate(456.2705,252.207)"><path
             d="M 0,0 C 0,-1.537 0.367,-2.754 1.1,-3.652 1.832,-4.551 2.824,-5 4.076,-5 5.334,-5 6.33,-4.552 7.068,-3.656 7.807,-2.761 8.176,-1.542 8.176,0 8.176,1.547 7.807,2.771 7.068,3.672 6.33,4.572 5.334,5.022 4.076,5.022 2.84,5.022 1.852,4.568 1.111,3.66 0.371,2.752 0,1.531 0,0 m -1.068,0 c 0,1.822 0.463,3.265 1.388,4.328 0.928,1.064 2.178,1.596 3.756,1.596 1.582,0 2.838,-0.532 3.768,-1.596 C 8.771,3.265 9.236,1.822 9.236,0 9.236,-1.821 8.771,-3.265 7.844,-4.328 6.914,-5.392 5.658,-5.923 4.076,-5.923 2.498,-5.923 1.248,-5.392 0.32,-4.328 -0.605,-3.265 -1.068,-1.821 -1.068,0"
             style="fill:#ffffff;fill-opacity:1;fill-rule:nonzero;stroke:none"
             id="path3030"
             inkscape:connector-curvature="0" /></g><g
           id="g3032"
           transform="translate(476.1201,246.5967)"><path
             d="m 0,0 0,11.244 1.139,0 6.349,-9.648 0,9.648 1,0 L 8.488,0 7.344,0 1.016,9.648 1.016,0 0,0 z"
             style="fill:#ffffff;fill-opacity:1;fill-rule:nonzero;stroke:none"
             id="path3034"
             inkscape:connector-curvature="0" /></g><g
           id="g3036"
           transform="translate(495.1904,250.001)"><path
             d="m 0,0 1.031,0 c 0.01,-0.886 0.289,-1.572 0.84,-2.061 0.549,-0.489 1.322,-0.733 2.32,-0.733 0.875,0 1.563,0.197 2.065,0.592 0.502,0.394 0.752,0.937 0.752,1.63 0,0.64 -0.176,1.13 -0.528,1.466 C 6.129,1.229 5.43,1.532 4.381,1.802 L 3.313,2.068 C 2.162,2.364 1.367,2.739 0.928,3.194 0.488,3.65 0.268,4.29 0.268,5.114 c 0,0.911 0.334,1.642 1,2.191 0.666,0.549 1.556,0.825 2.671,0.825 1.18,0 2.102,-0.301 2.766,-0.901 0.666,-0.601 1.004,-1.44 1.02,-2.519 l -1.045,0 C 6.664,5.509 6.414,6.126 5.932,6.561 5.447,6.996 4.768,7.214 3.893,7.214 3.068,7.214 2.43,7.027 1.977,6.656 1.523,6.285 1.299,5.761 1.299,5.084 1.299,4.569 1.445,4.164 1.74,3.866 2.035,3.568 2.523,3.333 3.207,3.16 L 4.52,2.832 C 5.816,2.506 6.729,2.094 7.252,1.596 7.775,1.097 8.037,0.41 8.037,-0.466 c 0,-1.007 -0.344,-1.801 -1.033,-2.381 -0.69,-0.58 -1.633,-0.87 -2.828,-0.87 -1.338,0 -2.369,0.314 -3.092,0.943 C 0.361,-2.146 0,-1.247 0,-0.076 L 0,0 z"
             style="fill:#ffffff;fill-opacity:1;fill-rule:nonzero;stroke:none"
             id="path3038"
             inkscape:connector-curvature="0" /></g><g
           id="g3040"
           transform="translate(513.7197,257.8408)"><path
             d="m 0,0 1.031,0 0,-7.084 c 0,-1.247 0.256,-2.15 0.768,-2.71 0.51,-0.56 1.334,-0.84 2.469,-0.84 1.134,0 1.961,0.28 2.476,0.84 0.516,0.56 0.776,1.463 0.776,2.71 l 0,7.084 1.029,0 0,-7.229 c 0,-1.43 -0.358,-2.509 -1.076,-3.237 -0.717,-0.727 -1.785,-1.091 -3.205,-1.091 -1.416,0 -2.481,0.363 -3.196,1.087 C 0.357,-9.744 0,-8.664 0,-7.229 L 0,0 z"
             style="fill:#ffffff;fill-opacity:1;fill-rule:nonzero;stroke:none"
             id="path3042"
             inkscape:connector-curvature="0" /></g><g
           id="g3044"
           transform="translate(533.2881,246.5967)"><path
             d="m 0,0 0,11.244 1.061,0 0,-10.32 5.74,0 L 6.801,0 0,0 z"
             style="fill:#ffffff;fill-opacity:1;fill-rule:nonzero;stroke:none"
             id="path3046"
             inkscape:connector-curvature="0" /></g><g
           id="g3048"
           transform="translate(551.1143,246.5967)"><path
             d="m 0,0 0,10.32 -3.488,0 0,0.924 8.037,0 0,-0.924 -3.488,0 L 1.061,0 0,0 z"
             style="fill:#ffffff;fill-opacity:1;fill-rule:nonzero;stroke:none"
             id="path3050"
             inkscape:connector-curvature="0" /></g><path
           d="m 565.718,257.841 1.063,0 0,-11.244 -1.063,0 0,11.244 z"
           style="fill:#ffffff;fill-opacity:1;fill-rule:nonzero;stroke:none"
           id="path3052"
           inkscape:connector-curvature="0" /><g
           id="g3054"
           transform="translate(577.958,246.5967)"><path
             d="m 0,0 0,11.244 1.139,0 6.349,-9.648 0,9.648 1,0 L 8.488,0 7.344,0 1.016,9.648 1.016,0 0,0 z"
             style="fill:#ffffff;fill-opacity:1;fill-rule:nonzero;stroke:none"
             id="path3056"
             inkscape:connector-curvature="0" /></g><g
           id="g3058"
           transform="translate(606.1592,246.5967)"><path
             d="M 0,0 -0.107,1.984 C -0.453,1.262 -0.971,0.698 -1.66,0.294 -2.35,-0.11 -3.141,-0.313 -4.031,-0.313 c -1.563,0 -2.791,0.532 -3.69,1.595 -0.898,1.064 -1.347,2.517 -1.347,4.359 0,1.827 0.457,3.265 1.373,4.317 0.916,1.051 2.158,1.576 3.726,1.576 1.307,0 2.369,-0.312 3.186,-0.935 0.816,-0.623 1.306,-1.5 1.471,-2.63 l -1.063,0 c -0.156,0.83 -0.555,1.481 -1.189,1.954 -0.637,0.473 -1.434,0.71 -2.391,0.71 -1.297,0 -2.299,-0.431 -3.002,-1.294 -0.705,-0.862 -1.059,-2.09 -1.059,-3.683 0,-1.542 0.354,-2.763 1.061,-3.664 0.709,-0.9 1.668,-1.35 2.879,-1.35 1.236,0 2.199,0.363 2.888,1.09 0.69,0.728 1.036,1.751 1.036,3.07 l 0,0.045 -3.711,0 0,0.924 4.695,0 L 0.832,0 0,0 z"
             style="fill:#ffffff;fill-opacity:1;fill-rule:nonzero;stroke:none"
             id="path3060"
             inkscape:connector-curvature="0" /></g><g
           id="g3062"
           transform="translate(234.8994,250.001)"><path
             d="m 0,0 1.031,0 c 0.01,-0.886 0.289,-1.572 0.84,-2.061 0.549,-0.489 1.322,-0.733 2.32,-0.733 0.875,0 1.563,0.197 2.065,0.592 0.502,0.394 0.752,0.937 0.752,1.63 0,0.64 -0.176,1.13 -0.528,1.466 C 6.129,1.229 5.43,1.532 4.381,1.802 L 3.313,2.068 C 2.162,2.364 1.367,2.739 0.928,3.194 0.488,3.65 0.268,4.29 0.268,5.114 c 0,0.911 0.334,1.642 1,2.191 0.666,0.549 1.556,0.825 2.671,0.825 1.18,0 2.102,-0.301 2.766,-0.901 0.666,-0.601 1.004,-1.44 1.02,-2.519 l -1.045,0 C 6.664,5.509 6.414,6.126 5.932,6.561 5.447,6.996 4.768,7.214 3.893,7.214 3.068,7.214 2.43,7.027 1.977,6.656 1.523,6.285 1.299,5.761 1.299,5.084 1.299,4.569 1.445,4.164 1.74,3.866 2.035,3.568 2.523,3.333 3.207,3.16 L 4.52,2.832 C 5.816,2.506 6.729,2.094 7.252,1.596 7.775,1.097 8.037,0.41 8.037,-0.466 c 0,-1.007 -0.344,-1.801 -1.033,-2.381 -0.69,-0.58 -1.633,-0.87 -2.828,-0.87 -1.338,0 -2.369,0.314 -3.092,0.943 C 0.361,-2.146 0,-1.247 0,-0.076 L 0,0 z"
             style="fill:#ffffff;fill-opacity:1;fill-rule:nonzero;stroke:none"
             id="path3064"
             inkscape:connector-curvature="0" /></g><g
           id="g3066"
           transform="translate(255.8799,246.5967)"><path
             d="m 0,0 0,10.32 -3.488,0 0,0.924 8.037,0 0,-0.924 -3.488,0 L 1.061,0 0,0 z"
             style="fill:#ffffff;fill-opacity:1;fill-rule:nonzero;stroke:none"
             id="path3068"
             inkscape:connector-curvature="0" /></g><g
           id="g3070"
           transform="translate(271.2393,250.9551)"><path
             d="M 0,0 4.359,0 2.176,5.786 0,0 z m -2.701,-4.358 4.265,11.244 1.237,0 4.267,-11.244 -1.084,0 -1.273,3.458 -5.039,0 -1.297,-3.458 -1.076,0 z"
             style="fill:#ffffff;fill-opacity:1;fill-rule:nonzero;stroke:none"
             id="path3072"
             inkscape:connector-curvature="0" /></g><g
           id="g3074"
           transform="translate(289.9131,246.5967)"><path
             d="m 0,0 0,10.32 -3.488,0 0,0.924 8.037,0 0,-0.924 -3.488,0 L 1.061,0 0,0 z"
             style="fill:#ffffff;fill-opacity:1;fill-rule:nonzero;stroke:none"
             id="path3076"
             inkscape:connector-curvature="0" /></g><path
           d="m 304.519,257.841 1.063,0 0,-11.244 -1.063,0 0,11.244 z"
           style="fill:#ffffff;fill-opacity:1;fill-rule:nonzero;stroke:none"
           id="path3078"
           inkscape:connector-curvature="0" /><g
           id="g3080"
           transform="translate(316.2236,250.001)"><path
             d="m 0,0 1.031,0 c 0.01,-0.886 0.289,-1.572 0.84,-2.061 0.549,-0.489 1.322,-0.733 2.32,-0.733 0.875,0 1.563,0.197 2.065,0.592 0.502,0.394 0.752,0.937 0.752,1.63 0,0.64 -0.176,1.13 -0.528,1.466 C 6.129,1.229 5.43,1.532 4.381,1.802 L 3.313,2.068 C 2.162,2.364 1.367,2.739 0.928,3.194 0.488,3.65 0.268,4.29 0.268,5.114 c 0,0.911 0.334,1.642 1,2.191 0.666,0.549 1.556,0.825 2.671,0.825 1.18,0 2.102,-0.301 2.766,-0.901 0.666,-0.601 1.004,-1.44 1.02,-2.519 l -1.045,0 C 6.664,5.509 6.414,6.126 5.932,6.561 5.447,6.996 4.768,7.214 3.893,7.214 3.068,7.214 2.43,7.027 1.977,6.656 1.523,6.285 1.299,5.761 1.299,5.084 1.299,4.569 1.445,4.164 1.74,3.866 2.035,3.568 2.523,3.333 3.207,3.16 L 4.52,2.832 C 5.816,2.506 6.729,2.094 7.252,1.596 7.775,1.097 8.037,0.41 8.037,-0.466 c 0,-1.007 -0.344,-1.801 -1.033,-2.381 -0.69,-0.58 -1.633,-0.87 -2.828,-0.87 -1.338,0 -2.369,0.314 -3.092,0.943 C 0.361,-2.146 0,-1.247 0,-0.076 L 0,0 z"
             style="fill:#ffffff;fill-opacity:1;fill-rule:nonzero;stroke:none"
             id="path3082"
             inkscape:connector-curvature="0" /></g><g
           id="g3084"
           transform="translate(337.2041,246.5967)"><path
             d="m 0,0 0,10.32 -3.488,0 0,0.924 8.037,0 0,-0.924 -3.488,0 L 1.061,0 0,0 z"
             style="fill:#ffffff;fill-opacity:1;fill-rule:nonzero;stroke:none"
             id="path3086"
             inkscape:connector-curvature="0" /></g><path
           d="m 351.808,257.841 1.063,0 0,-11.244 -1.063,0 0,11.244 z"
           style="fill:#ffffff;fill-opacity:1;fill-rule:nonzero;stroke:none"
           id="path3088"
           inkscape:connector-curvature="0" /><g
           id="g3090"
           transform="translate(371.9248,250.2686)"><path
             d="M 0,0 1.016,0 C 0.93,-1.247 0.49,-2.223 -0.301,-2.928 c -0.791,-0.705 -1.847,-1.056 -3.172,-1.056 -1.511,0 -2.705,0.53 -3.58,1.59 -0.875,1.062 -1.312,2.516 -1.312,4.363 0,1.832 0.441,3.272 1.324,4.32 0.883,1.049 2.082,1.573 3.6,1.573 1.271,0 2.3,-0.325 3.087,-0.973 C 0.432,6.24 0.854,5.371 0.91,4.282 l -1.015,0 c -0.088,0.824 -0.428,1.475 -1.024,1.95 -0.596,0.476 -1.367,0.714 -2.312,0.714 -1.217,0 -2.163,-0.434 -2.84,-1.301 -0.678,-0.869 -1.016,-2.088 -1.016,-3.661 0,-1.583 0.346,-2.822 1.035,-3.717 0.69,-0.896 1.643,-1.343 2.858,-1.343 0.992,0 1.791,0.271 2.394,0.816 0.602,0.545 0.94,1.298 1.01,2.26"
             style="fill:#ffffff;fill-opacity:1;fill-rule:nonzero;stroke:none"
             id="path3092"
             inkscape:connector-curvature="0" /></g><g
           id="g3094"
           transform="translate(384.8975,250.9551)"><path
             d="M 0,0 4.357,0 2.176,5.786 0,0 z m -2.703,-4.358 4.267,11.244 1.237,0 4.267,-11.244 -1.084,0 -1.275,3.458 -5.037,0 -1.299,-3.458 -1.076,0 z"
             style="fill:#ffffff;fill-opacity:1;fill-rule:nonzero;stroke:none"
             id="path3096"
             inkscape:connector-curvature="0" /></g><g
           id="g3098"
           transform="translate(401.7549,246.5967)"><path
             d="m 0,0 0,11.244 1.061,0 0,-10.32 5.74,0 L 6.801,0 0,0 z"
             style="fill:#ffffff;fill-opacity:1;fill-rule:nonzero;stroke:none"
             id="path3100"
             inkscape:connector-curvature="0" /></g><g
           id="g3102"
           transform="translate(561.4639,284.6777)"><path
             d="m 0,0 44.527,0 0,61.303 -46.027,0 0,-11.321 33.582,0 0,-15.773 -29.332,0 0,-10.487 29.332,0 0,-13.068 L 0,10.654 0,0 z M 46.527,-2 -2,-2 l 0,14.654 32.082,0 0,9.068 -29.332,0 0,14.487 29.332,0 0,11.773 -33.582,0 0,15.321 50.027,0 0,-65.303 z"
             style="fill:#ffffff;fill-opacity:1;fill-rule:nonzero;stroke:none"
             id="path3104"
             inkscape:connector-curvature="0" /></g><g
           id="g3106"
           transform="translate(249.3428,310.7715)"><path
             d="m 0,0 29.336,0 0,12.487 -29.336,0 0,11.068 32.084,0 0,12.654 -46.527,0 0,-63.303 48.029,0 0,13.321 L 0,-13.773 0,0 z"
             style="fill:#ffffff;fill-opacity:1;fill-rule:nonzero;stroke:none"
             id="path3108"
             inkscape:connector-curvature="0" /></g><g
           id="g3110"
           transform="translate(535.4639,284.6777)"><path
             d="m 0,0 13.191,0 0,61.303 -12.443,0 0,-42.116 -25.053,42.116 -13.027,0 0,-61.303 12.443,0 0,42.117 L 0,0 z m 15.191,-2 -16.332,0 -21.748,36.801 0,-36.801 -16.443,0 0,65.303 16.164,0 21.916,-36.843 0,36.843 16.443,0 0,-65.303 z"
             style="fill:#ffffff;fill-opacity:1;fill-rule:nonzero;stroke:none"
             id="path3112"
             inkscape:connector-curvature="0" /></g><g
           id="g3114"
           transform="translate(331.1455,307.501)"><path
             d="m 0,0 -23.484,39.479 -14.596,0 0,-63.302 14.443,0 0,39.459 23.028,-38.968 0.291,-0.491 14.761,0 0,63.302 L 0,39.479 0,0 z"
             style="fill:#ffffff;fill-opacity:1;fill-rule:nonzero;stroke:none"
             id="path3116"
             inkscape:connector-curvature="0" /></g><g
           id="g3118"
           transform="translate(452.3496,322.5156)"><path
             d="M 0,0 21.173,0 C 20.796,3.923 19.824,6.542 18.071,8.407 16.274,10.32 13.851,11.25 10.661,11.25 7.264,11.25 4.642,10.302 2.867,8.431 1.131,6.599 0.232,3.974 0,0 m 23.325,-2 -25.398,0 0.029,1.029 c 0.148,5.084 1.215,8.409 3.46,10.778 2.167,2.285 5.277,3.443 9.245,3.443 3.72,0 6.703,-1.169 8.867,-3.474 2.247,-2.39 3.397,-5.694 3.727,-10.711 L 23.325,-2 z m -38.623,-16.857 c 1.632,-5.399 4.634,-9.723 8.938,-12.865 4.646,-3.394 10.41,-5.116 17.131,-5.116 8.224,0 14.821,2.788 19.607,8.285 4.822,5.537 7.268,13.184 7.268,22.727 0,9.393 -2.408,16.883 -7.155,22.259 -4.715,5.339 -11.277,8.046 -19.504,8.046 -8.734,0 -15.554,-2.664 -20.269,-7.916 -4.743,-5.285 -7.149,-12.963 -7.149,-22.825 0,-1.087 0.008,-1.904 0.027,-2.459 l 0.012,-0.348 -0.039,-0.053 0,-1.276 39.698,0 -0.085,-1.08 c -0.346,-4.361 -1.547,-7.753 -3.573,-10.085 -2.237,-2.576 -5.467,-3.882 -9.6,-3.882 -2.899,0 -5.328,0.59 -7.221,1.755 -1.75,1.073 -3.176,2.697 -4.245,4.833 l -13.841,0 z m 26.069,-19.981 c -7.155,0 -13.315,1.851 -18.311,5.501 -5.015,3.661 -8.394,8.786 -10.043,15.232 l -0.319,1.248 17.722,0 0.266,-0.589 c 0.928,-2.056 2.188,-3.583 3.749,-4.54 1.574,-0.969 3.651,-1.459 6.174,-1.459 3.577,0 6.223,1.045 8.091,3.194 1.575,1.813 2.576,4.452 2.981,7.853 l -39.512,0 0.018,3.959 c -0.013,0.544 -0.018,1.27 -0.018,2.177 0,10.369 2.577,18.498 7.66,24.16 5.111,5.695 12.431,8.581 21.758,8.581 8.826,0 15.892,-2.934 21.004,-8.722 5.079,-5.753 7.655,-13.688 7.655,-23.583 0,-10.04 -2.611,-18.128 -7.76,-24.04 -5.183,-5.953 -12.286,-8.972 -21.115,-8.972"
             style="fill:#ffffff;fill-opacity:1;fill-rule:nonzero;stroke:none"
             id="path3120"
             inkscape:connector-curvature="0" /></g><g
           id="g3122"
           transform="translate(388.2314,301.0381)"><path
             d="m 0,0 c -1.979,-2.086 -4.818,-3.131 -8.52,-3.131 -3.449,0 -6.162,1.054 -8.138,3.158 -1.979,2.106 -3.131,5.137 -3.457,10.092 l 23.301,0 C 3.041,5.127 1.979,2.088 0,0 m 19.572,20.518 -39.613,0 c 0.326,4.145 1.43,7.323 3.328,9.507 2.049,2.36 4.998,3.539 8.846,3.539 2.722,0 4.955,-0.535 6.697,-1.606 1.742,-1.069 3.121,-2.73 4.137,-4.981 l 15.789,0 c -1.598,6.243 -4.818,11.133 -9.664,14.671 -4.844,3.54 -10.752,5.309 -17.721,5.309 -8.566,0 -15.353,-2.876 -20.361,-8.629 -5.01,-5.752 -7.514,-13.547 -7.514,-23.383 0,-9.691 2.469,-17.331 7.404,-22.921 4.936,-5.588 11.688,-8.384 20.254,-8.384 9.073,0 16.078,2.75 21.014,8.249 4.936,5.498 7.404,13.33 7.404,23.492 0,1.102 -0.008,1.932 -0.025,2.494 l 0.025,0.037 0,2.606 z"
             style="fill:#ffffff;fill-opacity:1;fill-rule:nonzero;stroke:none"
             id="path3124"
             inkscape:connector-curvature="0" /></g><g
           id="g3126"
           transform="translate(424.6895,315.3291)"><path
             d="m 0,0 c 0,-2.115 -1.713,-3.828 -3.828,-3.828 -2.114,0 -3.828,1.713 -3.828,3.828 0,2.115 1.714,3.828 3.828,3.828 C -1.713,3.828 0,2.115 0,0"
             style="fill:#ffffff;fill-opacity:1;fill-rule:nonzero;stroke:none"
             id="path3128"
             inkscape:connector-curvature="0" /></g></g></g></g></svg>
